<?xml version="1.0" encoding="UTF-8"?>
<svg width="48px" height="48px" viewBox="0 0 48 48" version="1.1" xmlns="http://www.w3.org/2000/svg" xmlns:xlink="http://www.w3.org/1999/xlink">
    <!-- Generator: Sketch 62 (91390) - https://sketch.com -->
    <title>Untitled</title>
    <desc>Created with Sketch.</desc>
    <g id="Page-1" stroke="none" stroke-width="1" fill="none" fill-rule="evenodd">
        <g id="logo-copy">
            <g id="cloud-black-48dp">
                <polygon id="Path" points="0 0 47.1272727 0 47.1272727 47.1272727 0 47.1272727"></polygon>
                <path d="M23.5636364,11.7818182 C28.7083636,11.7818182 33.1461818,15.4341818 34.1476364,20.4807273 L34.7367273,23.4261818 L37.7410909,23.6421818 C40.8043636,23.8385455 43.2,26.4109091 43.2,29.4545455 C43.2,32.6945455 40.5490909,35.3454545 37.3090909,35.3454545 L11.7818182,35.3454545 C7.44218182,35.3454545 3.92727273,31.8305455 3.92727273,27.4909091 C3.92727273,23.4654545 6.93163636,20.1076364 10.9178182,19.6952727 L13.0189091,19.4792727 L14.0007273,17.6138182 C15.8661818,14.0203636 19.5185455,11.7818182 23.5636364,11.7818182 M23.5636364,7.85454545 C17.8887273,7.85454545 12.96,11.0749091 10.5054545,15.7876364 C4.59490909,16.416 0,21.4232727 0,27.4909091 C0,33.9905455 5.28218182,39.2727273 11.7818182,39.2727273 L37.3090909,39.2727273 C42.7287273,39.2727273 47.1272727,34.8741818 47.1272727,29.4545455 C47.1272727,24.2705455 43.1018182,20.0683636 37.9963636,19.7149091 C36.6610909,12.9403636 30.7112727,7.85454545 23.5636364,7.85454545 Z" id="Shape" fill="#001EFE" fill-rule="nonzero"></path>
            </g>
            <g id="K" transform="translate(18.000000, 13.000000)" fill="#001EFE" font-family="Helvetica" font-size="18" font-weight="normal" stroke-width="0.5">
                <g id="text-2-link" stroke="#FFFFFF">
                    <text id="K">
                        <tspan x="0" y="18">K</tspan>
                    </text>
                </g>
                <g id="text-2-link" stroke="#FFFFFF">
                    <text id="K">
                        <tspan x="0" y="18">K</tspan>
                    </text>
                </g>
                <text stroke="#979797">
                    <tspan x="0" y="18">K</tspan>
                </text>
            </g>
        </g>
    </g>
</svg>