<?xml version="1.0" encoding="UTF-8"?>
<svg width="20px" height="20px" viewBox="0 0 20 20" version="1.1" xmlns="http://www.w3.org/2000/svg" xmlns:xlink="http://www.w3.org/1999/xlink">
    <!-- Generator: Sketch 62 (91390) - https://sketch.com -->
    <title>facebook_icon@1x</title>
    <desc>Created with Sketch.</desc>
    <g id="Page-1" stroke="none" stroke-width="1" fill="none" fill-rule="evenodd">
        <g id="icons8-facebook" fill-rule="nonzero">
            <path d="M10,0 C4.4771525,0 -1.8698493e-15,4.4771525 -1.8698493e-15,10 C-1.8698493e-15,15.5228475 4.4771525,20 10,20 C15.5228475,20 20,15.5228475 20,10 C20,4.4771525 15.5228475,0 10,0 Z" id="Path" fill="#039BE5"></path>
            <path d="M11.3536842,12.6505263 L13.9415789,12.6505263 L14.3478947,10.0215789 L11.3531579,10.0215789 L11.3531579,8.58473684 C11.3531579,7.49263158 11.71,6.52421053 12.7315789,6.52421053 L14.3731579,6.52421053 L14.3731579,4.23 C14.0847368,4.19105263 13.4747368,4.10578947 12.3221053,4.10578947 C9.91526316,4.10578947 8.50421053,5.37684211 8.50421053,8.27263158 L8.50421053,10.0215789 L6.03,10.0215789 L6.03,12.6505263 L8.50421053,12.6505263 L8.50421053,19.8763158 C8.99421053,19.95 9.49052632,20 10,20 C10.4605263,20 10.91,19.9578947 11.3536842,19.8978947 L11.3536842,12.6505263 Z" id="Path" fill="#FFFFFF"></path>
        </g>
    </g>
</svg>