<?xml version="1.0" encoding="UTF-8"?>
<svg width="20px" height="20px" viewBox="0 0 20 20" version="1.1" xmlns="http://www.w3.org/2000/svg" xmlns:xlink="http://www.w3.org/1999/xlink">
    <!-- Generator: Sketch 62 (91390) - https://sketch.com -->
    <title>Instagram_icon@1x</title>
    <desc>Created with Sketch.</desc>
    <defs>
        <radialGradient cx="14.9305469%" cy="100.347188%" fx="14.9305469%" fy="100.347188%" r="127.774922%" id="radialGradient-1">
            <stop stop-color="#FFB140" offset="0%"></stop>
            <stop stop-color="#FF5445" offset="25.59%"></stop>
            <stop stop-color="#FC2B82" offset="59.9%"></stop>
            <stop stop-color="#8E40B7" offset="100%"></stop>
        </radialGradient>
    </defs>
    <g id="Page-1" stroke="none" stroke-width="1" fill="none" fill-rule="evenodd">
        <g id="Instagram_icon">
            <rect id="Rectangle" x="0" y="0" width="20" height="20"></rect>
            <path d="M16.5379688,4.66203125 C16.5379688,5.32484375 16.000625,5.86203125 15.3379688,5.86203125 C14.6753125,5.86203125 14.1379688,5.32484375 14.1379688,4.66203125 C14.1379688,3.99921875 14.6753125,3.46203125 15.3379688,3.46203125 C16.0007812,3.46203125 16.5379688,3.99921875 16.5379688,4.66203125 Z M10,13.3332812 C8.1590625,13.3332812 6.66671875,11.8409375 6.66671875,10 C6.66671875,8.1590625 8.1590625,6.66671875 10,6.66671875 C11.8409375,6.66671875 13.3332812,8.1590625 13.3332812,10 C13.3332812,11.8409375 11.8409375,13.3332812 10,13.3332812 Z M10,4.86484375 C7.16390625,4.86484375 4.86484375,7.16390625 4.86484375,10 C4.86484375,12.8360937 7.16390625,15.1351563 10,15.1351563 C12.8360937,15.1351563 15.1351563,12.8360937 15.1351563,10 C15.1351563,7.16390625 12.8360937,4.86484375 10,4.86484375 Z M10,1.801875 C12.6701562,1.801875 12.9864062,1.81203125 14.0407813,1.86015625 C15.0157812,1.9046875 15.5453125,2.0675 15.8976563,2.20453125 C16.364375,2.3859375 16.6975,2.60265625 17.0475,2.95265625 C17.3975,3.3025 17.6142187,3.635625 17.795625,4.1025 C17.9325,4.45484375 18.0954687,4.984375 18.14,5.959375 C18.188125,7.01390625 18.1982813,7.33015625 18.1982813,10.0003125 C18.1982813,12.6704687 18.188125,12.9867187 18.14,14.0410937 C18.0954687,15.0160937 17.9326563,15.545625 17.795625,15.8979687 C17.6142187,16.3646875 17.3975,16.6978125 17.0475,17.0478125 C16.6976563,17.3978125 16.3645312,17.6145312 15.8976563,17.7959375 C15.5453125,17.9328125 15.0157812,18.0957812 14.0407813,18.1403125 C12.9864062,18.1884375 12.6701562,18.1985937 10,18.1985937 C7.3296875,18.1985937 7.0134375,18.1884375 5.9590625,18.1403125 C4.9840625,18.0957812 4.45453125,17.9329687 4.1021875,17.7959375 C3.63546875,17.6145312 3.30234375,17.3978125 2.95234375,17.0478125 C2.6025,16.6979687 2.385625,16.3648437 2.20421875,15.8979687 C2.06734375,15.545625 1.904375,15.0160937 1.85984375,14.0410937 C1.81171875,12.9865625 1.8015625,12.6703125 1.8015625,10.0003125 C1.8015625,7.33015625 1.81171875,7.01390625 1.85984375,5.959375 C1.904375,4.984375 2.0671875,4.45484375 2.20421875,4.1025 C2.385625,3.63578125 2.60234375,3.30265625 2.95234375,2.95265625 C3.3021875,2.60265625 3.6353125,2.3859375 4.1021875,2.20453125 C4.45453125,2.06765625 4.9840625,1.9046875 5.9590625,1.86015625 C7.01359375,1.81203125 7.32984375,1.801875 10,1.801875 Z M10,0 C7.28421875,0 6.94359375,0.0115625 5.87703125,0.06015625 C4.81265625,0.10875 4.085625,0.2778125 3.4496875,0.525 C2.79203125,0.78046875 2.234375,1.1225 1.6784375,1.6784375 C1.1225,2.234375 0.78046875,2.79203125 0.525,3.4496875 C0.2778125,4.08578125 0.10875,4.81265625 0.06015625,5.87703125 C0.0115625,6.94359375 0,7.28421875 0,10 C0,12.7157812 0.0115625,13.0564063 0.06015625,14.1229688 C0.10875,15.1873438 0.2778125,15.9142187 0.525,16.5503125 C0.78046875,17.2079687 1.1225,17.765625 1.6784375,18.3215625 C2.234375,18.8775 2.79203125,19.219375 3.4496875,19.475 C4.08578125,19.7221875 4.81265625,19.89125 5.87703125,19.9398437 C6.94359375,19.9884375 7.28421875,20 10,20 C12.7157812,20 13.0564063,19.9884375 14.1229688,19.9398437 C15.1873438,19.89125 15.9142187,19.7221875 16.5503125,19.475 C17.2079687,19.219375 17.765625,18.8775 18.3215625,18.3215625 C18.8775,17.765625 19.219375,17.2079687 19.475,16.5503125 C19.7221875,15.9142187 19.89125,15.1873438 19.9398437,14.1229688 C19.9884375,13.0564063 20,12.7157812 20,10 C20,7.28421875 19.9884375,6.94359375 19.9398437,5.87703125 C19.89125,4.81265625 19.7221875,4.08578125 19.475,3.4496875 C19.219375,2.79203125 18.8775,2.234375 18.3215625,1.6784375 C17.765625,1.1225 17.2079687,0.780625 16.5503125,0.525 C15.9142187,0.2778125 15.1873438,0.10875 14.1229688,0.06015625 C13.0564063,0.0115625 12.7157812,0 10,0 Z" id="Instagram" fill="url(#radialGradient-1)"></path>
        </g>
    </g>
</svg>