<svg width="48" height="48" viewBox="0 0 48 48" fill="none" xmlns="http://www.w3.org/2000/svg">
<path d="M23.5636 11.7818C28.7084 11.7818 33.1462 15.4341 34.1476 20.4807L34.7367 23.4261L37.7411 23.6421C40.8044 23.8385 43.2 26.4109 43.2 29.4545C43.2 32.6945 40.5491 35.3454 37.3091 35.3454H11.7818C7.44218 35.3454 3.92727 31.8305 3.92727 27.4909C3.92727 23.4654 6.93164 20.1076 10.9178 19.6952L13.0189 19.4792L14.0007 17.6138C15.8662 14.0203 19.5185 11.7818 23.5636 11.7818ZM23.5636 7.85449C17.8887 7.85449 12.96 11.0749 10.5055 15.7876C4.59491 16.4159 0 21.4232 0 27.4909C0 33.9905 5.28218 39.2727 11.7818 39.2727H37.3091C42.7287 39.2727 47.1273 34.8741 47.1273 29.4545C47.1273 24.2705 43.1018 20.0683 37.9964 19.7149C36.6611 12.9403 30.7113 7.85449 23.5636 7.85449Z" fill="#001EFE"/>
<path d="M18.3711 19.0889H20.0762V25.3818L26.3691 19.0889H28.7861L23.416 24.292L28.9355 32H26.6592L22.1416 25.5225L20.0762 27.5V32H18.3711V19.0889Z" fill="#001EFE"/>
<path d="M18.3711 19.0889V18.8389H18.1211V19.0889H18.3711ZM20.0762 19.0889H20.3262V18.8389H20.0762V19.0889ZM20.0762 25.3818H19.8262V25.9854L20.2529 25.5586L20.0762 25.3818ZM26.3691 19.0889V18.8389H26.2656L26.1924 18.9121L26.3691 19.0889ZM28.7861 19.0889L28.9601 19.2684L29.4034 18.8389H28.7861V19.0889ZM23.416 24.292L23.2421 24.1124L23.0873 24.2624L23.2128 24.4375L23.416 24.292ZM28.9355 32V32.25H29.4221L29.1388 31.8545L28.9355 32ZM26.6592 32L26.4541 32.143L26.5287 32.25H26.6592V32ZM22.1416 25.5225L22.3467 25.3795L22.1796 25.1399L21.9687 25.3419L22.1416 25.5225ZM20.0762 27.5L19.9033 27.3194L19.8262 27.3932V27.5H20.0762ZM20.0762 32V32.25H20.3262V32H20.0762ZM18.3711 32H18.1211V32.25H18.3711V32ZM18.3711 19.3389H20.0762V18.8389H18.3711V19.3389ZM19.8262 19.0889V25.3818H20.3262V19.0889H19.8262ZM20.2529 25.5586L26.5459 19.2656L26.1924 18.9121L19.8994 25.2051L20.2529 25.5586ZM26.3691 19.3389H28.7861V18.8389H26.3691V19.3389ZM28.6122 18.9093L23.2421 24.1124L23.59 24.4715L28.9601 19.2684L28.6122 18.9093ZM23.2128 24.4375L28.7323 32.1455L29.1388 31.8545L23.6193 24.1464L23.2128 24.4375ZM28.9355 31.75H26.6592V32.25H28.9355V31.75ZM26.8642 31.857L22.3467 25.3795L21.9365 25.6655L26.4541 32.143L26.8642 31.857ZM21.9687 25.3419L19.9033 27.3194L20.2491 27.6806L22.3145 25.703L21.9687 25.3419ZM19.8262 27.5V32H20.3262V27.5H19.8262ZM20.0762 31.75H18.3711V32.25H20.0762V31.75ZM18.6211 32V19.0889H18.1211V32H18.6211Z" fill="#001EFE"/>
</svg>
